<svg id="visual" viewBox="0 0 900 600" width="900" height="600" xmlns="http://www.w3.org/2000/svg" xmlns:xlink="http://www.w3.org/1999/xlink" version="1.1"><rect x="0" y="0" width="900" height="600" fill="#002233"></rect><path d="M0 466L21.5 457.2C43 448.3 86 430.7 128.8 427.3C171.7 424 214.3 435 257.2 443.7C300 452.3 343 458.7 385.8 460.7C428.7 462.7 471.3 460.3 514.2 457.3C557 454.3 600 450.7 642.8 436.7C685.7 422.7 728.3 398.3 771.2 397.8C814 397.3 857 420.7 878.5 432.3L900 444L900 601L878.5 601C857 601 814 601 771.2 601C728.3 601 685.7 601 642.8 601C600 601 557 601 514.2 601C471.3 601 428.7 601 385.8 601C343 601 300 601 257.2 601C214.3 601 171.7 601 128.8 601C86 601 43 601 21.5 601L0 601Z" fill="#0066FF" stroke-linecap="round" stroke-linejoin="miter"></path></svg>