<svg id="visual" viewBox="0 0 900 600" width="900" height="600" xmlns="http://www.w3.org/2000/svg" xmlns:xlink="http://www.w3.org/1999/xlink" version="1.1"><rect x="0" y="0" width="900" height="600" fill="#002233"></rect><path d="M0 493L7.8 483.3C15.7 473.7 31.3 454.3 47.2 451.3C63 448.3 79 461.7 94.8 448C110.7 434.3 126.3 393.7 142 366.8C157.7 340 173.3 327 189.2 335.7C205 344.3 221 374.7 236.8 404.7C252.7 434.7 268.3 464.3 284.2 462.2C300 460 316 426 331.8 400.2C347.7 374.3 363.3 356.7 379 370.2C394.7 383.7 410.3 428.3 426.2 442.3C442 456.3 458 439.7 473.8 444.5C489.7 449.3 505.3 475.7 521 457.2C536.7 438.7 552.3 375.3 568.2 367C584 358.7 600 405.3 615.8 407.2C631.7 409 647.3 366 663.2 344.7C679 323.3 695 323.7 710.8 346.5C726.7 369.3 742.3 414.7 758 420.8C773.7 427 789.3 394 805.2 373.8C821 353.7 837 346.3 852.8 366C868.7 385.7 884.3 432.3 892.2 455.7L900 479L900 601L892.2 601C884.3 601 868.7 601 852.8 601C837 601 821 601 805.2 601C789.3 601 773.7 601 758 601C742.3 601 726.7 601 710.8 601C695 601 679 601 663.2 601C647.3 601 631.7 601 615.8 601C600 601 584 601 568.2 601C552.3 601 536.7 601 521 601C505.3 601 489.7 601 473.8 601C458 601 442 601 426.2 601C410.3 601 394.7 601 379 601C363.3 601 347.7 601 331.8 601C316 601 300 601 284.2 601C268.3 601 252.7 601 236.8 601C221 601 205 601 189.2 601C173.3 601 157.7 601 142 601C126.3 601 110.7 601 94.8 601C79 601 63 601 47.2 601C31.3 601 15.7 601 7.8 601L0 601Z" fill="#0066FF" stroke-linecap="round" stroke-linejoin="miter"></path></svg>